<?xml version="1.0" standalone="no"?>
<!DOCTYPE svg PUBLIC "-//W3C//DTD SVG 20010904//EN"
 "http://www.w3.org/TR/2001/REC-SVG-20010904/DTD/svg10.dtd">
<svg version="1.0" xmlns="http://www.w3.org/2000/svg"
 width="400.000000pt" height="400.000000pt" viewBox="0 0 400.000000 400.000000"
 preserveAspectRatio="xMidYMid meet">
<metadata>
Created by potrace 1.11, written by Peter Selinger 2001-2013
</metadata>
<g transform="translate(0.000000,400.000000) scale(0.100000,-0.100000)"
fill="#000000" stroke="none">
<path d="M360 3193 c-60 -42 -117 -140 -145 -248 -23 -91 -20 -145 21 -330 35
-153 1 -263 -147 -487 -87 -133 -93 -146 -84 -194 7 -41 37 -63 94 -69 22 -2
49 -6 60 -10 20 -6 56 -92 66 -160 3 -22 8 -56 11 -75 3 -19 8 -102 11 -185 5
-162 13 -187 61 -207 28 -12 401 -22 459 -12 l33 5 2 392 3 392 195 0 195 0 3
-384 c1 -230 6 -389 12 -396 14 -17 365 -17 380 0 13 15 15 1964 2 1977 -5 5
-94 7 -198 6 l-189 -3 -5 -395 c-3 -217 -7 -396 -8 -397 -6 -7 -369 -2 -379 5
-10 6 -13 101 -15 398 l-3 389 -205 3 c-182 2 -208 0 -230 -15z"/>
<path d="M2516 3191 c151 -51 246 -159 277 -313 l12 -63 195 -5 195 -5 3 -589
c1 -436 -1 -592 -9 -597 -7 -4 -93 -7 -192 -7 -99 0 -183 -4 -187 -9 -4 -4
-13 -35 -20 -68 -17 -83 -51 -145 -112 -206 -52 -52 -134 -99 -175 -99 -12 0
-24 -4 -27 -9 -8 -12 1496 -11 1512 2 14 11 18 372 3 381 -5 4 -90 6 -188 7
-99 0 -185 4 -191 8 -9 5 -11 163 -9 596 l2 590 195 5 195 5 3 175 c1 96 0
185 -3 198 l-5 22 -763 -1 c-736 0 -760 -1 -711 -18z"/>
<path d="M2007 2803 c-4 -3 -7 -273 -7 -599 l0 -593 128 2 c139 3 170 12 219
68 36 40 49 74 52 135 2 50 2 51 -23 47 -23 -5 -26 -2 -26 21 0 25 3 26 50 26
47 0 50 -2 50 -25 0 -20 5 -25 25 -25 20 0 25 5 25 25 0 20 -5 25 -25 25 -20
0 -25 5 -25 25 0 21 5 25 33 26 17 1 40 1 50 0 12 -2 17 5 17 23 0 21 -5 26
-25 26 -20 0 -25 5 -25 25 0 27 -4 28 -62 25 -35 -1 -38 1 -38 24 0 24 3 26
50 26 47 0 50 -2 50 -25 0 -20 5 -25 25 -25 20 0 25 5 25 25 0 20 5 25 25 25
20 0 25 5 25 24 0 15 -7 26 -19 29 -25 6 -31 0 -31 -30 0 -18 -5 -23 -25 -23
-20 0 -25 5 -25 25 0 24 -9 30 -37 26 -8 -1 -13 9 -13 24 0 23 -3 25 -50 25
-47 0 -50 2 -50 25 0 20 5 25 25 25 20 0 25 5 25 25 0 23 3 25 50 25 47 0 50
2 50 25 0 20 -5 25 -25 25 -23 0 -25 3 -25 50 0 47 2 50 25 50 20 0 25 -5 25
-25 0 -20 5 -25 25 -25 20 0 25 -5 25 -25 0 -20 5 -25 25 -25 20 0 25 5 25 25
0 20 -5 25 -25 25 -21 0 -25 5 -25 29 0 25 -3 28 -25 23 -22 -4 -25 -1 -25 22
0 21 -5 26 -25 26 -20 0 -25 -5 -25 -25 0 -20 -5 -25 -25 -25 -23 0 -25 3 -25
50 0 47 2 50 25 50 20 0 25 5 25 25 0 20 -5 25 -24 25 -20 0 -25 6 -31 40 -9
54 -55 113 -107 139 -37 18 -62 21 -159 21 -64 0 -119 -3 -122 -7z m393 -218
c0 -20 -5 -25 -25 -25 -20 0 -25 5 -25 25 0 20 5 25 25 25 20 0 25 -5 25 -25z
m-100 -150 c0 -20 -5 -25 -25 -25 -20 0 -25 5 -25 25 0 20 5 25 25 25 20 0 25
-5 25 -25z m100 -50 c0 -20 -5 -25 -25 -25 -20 0 -25 5 -25 25 0 20 5 25 25
25 20 0 25 -5 25 -25z m-50 -100 c0 -20 -5 -25 -25 -25 -20 0 -25 5 -25 25 0
20 5 25 25 25 20 0 25 -5 25 -25z m0 -250 c0 -23 3 -25 50 -25 46 0 50 -2 50
-24 0 -23 -3 -25 -50 -23 -45 1 -50 3 -50 24 0 18 -6 23 -25 23 -20 0 -25 5
-25 25 0 20 5 25 25 25 20 0 25 -5 25 -25z"/>
<path d="M2550 2535 c0 -20 5 -25 25 -25 20 0 25 5 25 25 0 20 -5 25 -25 25
-20 0 -25 -5 -25 -25z"/>
<path d="M2700 2385 c0 -20 5 -25 25 -25 20 0 25 5 25 25 0 20 -5 25 -25 25
-20 0 -25 -5 -25 -25z"/>
<path d="M2600 2285 c0 -20 5 -25 25 -25 20 0 25 5 25 25 0 20 -5 25 -25 25
-20 0 -25 -5 -25 -25z"/>
<path d="M2500 2235 c0 -20 5 -25 25 -25 20 0 25 5 25 25 0 20 -5 25 -25 25
-20 0 -25 -5 -25 -25z"/>
<path d="M2750 2235 c0 -20 5 -25 25 -25 20 0 25 5 25 25 0 20 -5 25 -25 25
-20 0 -25 -5 -25 -25z"/>
<path d="M2650 2185 c0 -20 5 -25 25 -25 20 0 25 5 25 25 0 20 -5 25 -25 25
-20 0 -25 -5 -25 -25z"/>
<path d="M2650 2035 c0 -20 5 -25 25 -25 20 0 25 5 25 25 0 20 -5 25 -25 25
-20 0 -25 -5 -25 -25z"/>
<path d="M2556 1962 c-3 -3 -6 -16 -6 -29 0 -18 5 -23 25 -23 20 0 25 5 25 24
0 22 -31 42 -44 28z"/>
<path d="M263 983 c-9 -3 -13 -32 -13 -97 0 -85 2 -92 20 -93 15 -1 20 5 21
25 2 54 4 57 29 58 42 1 50 -6 50 -45 0 -30 4 -37 20 -38 19 -2 20 4 20 92 0
70 -3 94 -14 98 -20 8 -26 -2 -26 -40 0 -32 -1 -33 -41 -33 -38 0 -40 2 -39
28 4 53 1 57 -27 45z"/>
<path d="M463 982 c-6 -4 -11 -39 -12 -79 0 -66 2 -74 26 -92 32 -26 83 -27
114 -2 20 16 23 28 24 92 1 41 -3 77 -9 81 -23 15 -33 -5 -35 -69 -1 -73 -12
-94 -43 -88 -30 6 -35 17 -34 90 1 63 -8 81 -31 67z"/>
<path d="M675 981 c-18 -5 -20 -14 -20 -93 0 -90 5 -104 28 -95 9 3 13 22 12
61 -1 31 1 56 4 56 3 0 14 -27 23 -59 23 -78 46 -77 71 2 10 32 21 57 25 57 4
0 5 -25 4 -55 -3 -44 -1 -56 13 -61 28 -11 29 -6 26 142 -1 53 1 52 -53 45 -3
-1 -14 -25 -24 -53 -25 -78 -26 -78 -48 -8 -22 66 -28 72 -61 61z"/>
<path d="M938 942 c-26 -62 -48 -124 -48 -139 0 -22 30 -14 41 10 15 33 73 34
88 1 12 -26 56 -30 45 -4 -3 8 -17 47 -31 85 -29 77 -35 88 -59 91 -10 2 -22
-14 -36 -44z m62 -64 c0 -5 -11 -8 -25 -8 -29 0 -29 0 -13 35 l12 26 13 -23
c7 -13 12 -26 13 -30z"/>
<path d="M1096 983 c-3 -4 -6 -49 -6 -100 0 -84 2 -94 18 -91 13 2 18 16 22
63 l5 60 38 -62 c27 -44 43 -61 57 -60 11 1 20 4 21 7 0 3 1 44 2 92 2 76 0
88 -16 92 -24 6 -30 -12 -25 -73 4 -58 -5 -54 -45 18 -23 42 -57 67 -71 54z"/>
<path d="M1382 977 c-5 -7 -8 -50 -8 -97 l1 -85 45 -1 c83 -2 119 24 120 86 0
52 -9 76 -33 89 -32 17 -114 22 -125 8z m100 -44 c40 -36 14 -107 -37 -101
-28 3 -30 5 -30 53 -1 28 0 53 3 58 6 13 45 7 64 -10z"/>
<path d="M1637 977 c-18 -14 -82 -175 -73 -184 10 -10 38 7 43 26 7 26 70 23
86 -4 11 -19 47 -33 47 -19 0 20 -67 184 -77 188 -6 3 -18 -1 -26 -7z m27 -79
c5 -24 3 -28 -14 -28 -23 0 -23 0 -10 36 12 31 15 30 24 -8z"/>
<path d="M1731 982 c-19 -6 2 -32 25 -32 26 0 26 2 25 -88 0 -48 3 -64 15 -69
24 -9 31 12 29 88 l-2 69 28 0 c21 0 29 5 29 18 0 15 -10 17 -70 17 -38 0 -74
-1 -79 -3z"/>
<path d="M1943 982 c-11 -7 -59 -122 -70 -169 -7 -32 24 -31 38 1 9 19 18 24
43 23 19 -1 35 -9 42 -21 6 -11 22 -21 34 -23 18 -3 21 0 15 14 -4 10 -18 50
-32 88 -35 93 -43 104 -70 87z m29 -86 c4 -19 0 -25 -17 -28 -21 -4 -21 -3
-12 28 11 37 22 37 29 0z"/>
<path d="M2163 983 c-9 -3 -13 -33 -13 -99 0 -87 1 -94 20 -94 22 0 22 1 22
105 0 105 1 101 -29 88z"/>
<path d="M2239 987 c-1 -1 -2 -44 -3 -96 -1 -71 2 -95 12 -99 21 -8 29 13 26
68 -2 55 7 64 25 24 20 -46 64 -95 80 -92 13 3 16 19 17 90 0 48 -3 93 -7 100
-15 24 -32 -9 -33 -62 0 -27 -2 -50 -5 -50 -3 0 -19 22 -34 50 -15 27 -33 53
-40 57 -11 7 -36 13 -38 10z"/>
<path d="M2424 981 c-14 -14 0 -31 26 -31 l30 0 0 -80 c0 -77 1 -80 22 -77 21
4 22 9 20 81 -1 67 1 77 16 75 34 -3 43 1 40 19 -3 14 -15 17 -76 17 -41 0
-76 -2 -78 -4z"/>
<path d="M2611 980 c-5 -4 -7 -155 -2 -181 1 -3 33 -6 71 -6 61 0 70 3 70 19
0 15 -8 18 -50 18 -46 0 -50 2 -50 24 0 21 4 23 45 21 38 -1 45 1 45 17 0 15
-8 18 -45 18 -38 0 -45 3 -45 20 0 17 7 20 50 20 38 0 50 4 50 15 0 8 -6 16
-12 16 -39 4 -121 3 -127 -1z"/>
<path d="M2800 981 c-12 -5 -15 -22 -14 -86 1 -44 2 -86 3 -93 2 -23 36 -8 37
16 1 12 2 29 3 37 1 16 37 20 58 7 6 -4 13 -21 15 -37 2 -19 10 -31 21 -33 13
-3 17 3 17 30 0 18 -4 39 -9 47 -6 9 -4 22 4 35 14 22 6 58 -15 71 -15 9 -101
14 -120 6z m95 -56 c0 -15 -8 -21 -29 -23 -34 -4 -49 8 -40 32 10 26 69 18 69
-9z"/>
<path d="M3049 983 c-15 -4 -79 -150 -79 -181 0 -22 30 -13 39 12 8 19 16 23
43 21 47 -4 45 -3 50 -23 3 -10 14 -18 26 -19 l20 -2 -20 57 c-50 139 -51 141
-79 135z m31 -105 c0 -5 -11 -8 -24 -8 -24 0 -24 2 -14 31 l11 32 13 -24 c7
-13 13 -27 14 -31z"/>
<path d="M3203 972 c-50 -39 -53 -125 -6 -162 32 -25 84 -26 111 -2 23 19 39
62 23 62 -21 0 -41 -13 -41 -26 0 -24 -58 -21 -76 4 -14 19 -10 68 6 87 18 22
48 24 66 4 23 -26 54 -25 47 1 -3 10 -12 25 -19 31 -23 19 -87 19 -111 1z"/>
<path d="M3371 982 c-22 -7 -11 -32 14 -32 29 0 27 5 29 -85 1 -64 3 -70 23
-71 20 -1 21 3 21 60 -1 96 -1 96 30 96 19 0 29 5 29 15 0 8 -3 15 -6 16 -18
3 -131 4 -140 1z"/>
<path d="M3558 982 c-16 -3 -18 -16 -18 -96 0 -85 2 -92 20 -93 11 -1 20 4 21
10 4 53 3 170 -1 176 -3 4 -13 5 -22 3z"/>
<path d="M3661 974 c-76 -54 -42 -184 49 -184 39 0 78 28 86 62 11 48 11 50
-4 85 -24 51 -86 68 -131 37z m89 -45 c29 -53 -6 -117 -54 -100 -44 17 -47
104 -3 120 27 10 45 4 57 -20z"/>
<path d="M3839 976 c-1 -18 -1 -150 0 -168 1 -9 8 -15 19 -14 14 3 17 13 17
65 -1 61 0 61 17 39 9 -13 23 -34 30 -48 21 -40 46 -63 62 -57 12 5 15 25 14
97 0 50 -3 92 -7 95 -18 10 -30 -16 -33 -69 l-3 -59 -15 29 c-31 61 -61 98
-80 99 -11 1 -20 -3 -21 -9z"/>
</g>
</svg>
